<?xml version="1.0" encoding="UTF-8"?>
<svg id="Layer_1" data-name="Layer 1" xmlns="http://www.w3.org/2000/svg" width="846" height="188" version="1.1" viewBox="0 0 846 188">
  <defs>
    <style>
      .cls-1 {
        fill: #fff;
      }

      .cls-1, .cls-2 {
        stroke-width: 0px;
      }

      .cls-2 {
        fill: #f6b31c;
      }
    </style>
  </defs>
  <g>
    <path class="cls-2" d="M118.666,59.255c-5.868,32.927-33.415,58.027-70.251,58.027H.331L20.706,1.882h48.083c36.837,0,55.744,24.122,49.877,57.373ZM50.86,85.009c15.973,0,28.198-8.965,31.132-25.754,2.933-16.787-6.032-25.752-22.005-25.752h-8.638l-9.128,51.506h8.639Z"/>
    <path class="cls-2" d="M142.781,1.882h36.185l-20.374,115.4h-36.185L142.781,1.882Z"/>
    <path class="cls-1" d="M188.154,1.882h97.144l-5.053,28.688h-30.643l-15.322,86.712h-36.184l15.32-86.712h-30.316l5.053-28.688Z"/>
    <path class="cls-1" d="M348.436,1.882c29.013,0,40.912,16.626,37.163,37.816-2.77,15.157-13.365,28.033-30.806,33.413l17.278,44.171h-39.771l-14.507-41.401-7.334,41.401h-36.185L294.648,1.882h53.788ZM339.798,32.199h-14.344l-3.423,19.56h14.344c6.845,0,10.921-2.936,12.224-9.78.978-5.869-1.956-9.78-8.801-9.78Z"/>
    <path class="cls-1" d="M404.352,1.882h36.022l-11.409,65.034c-1.794,9.943.815,17.278,11.735,17.278s16.625-7.335,18.418-17.278L470.528,1.882h36.022l-11.409,65.034c-6.195,35.045-31.133,51.506-60.797,51.506-28.851,0-47.432-17.441-41.401-51.506L404.352,1.882Z"/>
    <path class="cls-1" d="M576.092.741c30.48,0,48.084,18.256,47.921,45.475h-38.141c-2.118-7.661-8.15-12.061-16.3-12.061-12.224,0-21.515,9.943-24.122,25.263-2.77,15.323,3.096,25.265,15.323,25.265,8.148,0,15.646-4.402,20.537-12.061h38.139c-9.617,27.219-33.576,45.475-64.056,45.475-35.369,0-52.647-24.285-46.615-58.679,6.029-34.391,31.947-58.677,67.316-58.677Z"/>
    <path class="cls-1" d="M670.539,67.079l-8.802,50.203h-36.184L645.928,1.882h36.184l-8.637,48.573L715.201,1.882h40.912l-49.714,55.254,31.947,60.145h-43.03l-24.777-50.203Z"/>
    <path class="cls-2" d="M792.728,118.422c-29.013,0-49.062-12.224-46.129-38.141h38.467c-.652,6.684,1.956,9.943,8.313,9.943,3.748,0,6.844-1.956,6.844-5.704,0-14.671-46.126-12.224-46.126-45.475,0-25.102,20.211-39.119,48.084-39.119,26.73,0,46.126,13.854,43.193,37.324h-38.956c1.141-6.029-1.63-9.128-6.358-9.128-3.585,0-6.355,2.284-6.355,5.869,0,13.854,45.963,14.18,45.963,47.269,0,21.026-17.276,37.161-46.941,37.161Z"/>
  </g>
  <g>
    <path class="cls-1" d="M139.134,171.243c0,10.002-6.875,16.498-17.447,16.498h-11.568v-33.092h11.568c10.572,0,17.447,6.544,17.447,16.594ZM121.449,182.099c6.969,0,10.904-3.982,10.904-10.856s-3.935-11.001-10.904-11.001h-4.694v21.857h4.694Z"/>
    <path class="cls-1" d="M146,154.649h6.637v33.092h-6.637v-33.092Z"/>
    <path class="cls-1" d="M180.273,160.006h-12.564v8.297h11.142v5.263h-11.142v8.77h12.564v5.405h-19.2v-33.14h19.2v5.405Z"/>
    <path class="cls-1" d="M199.61,188.074c-6.874,0-12.184-3.603-12.279-9.862h7.112c.189,2.656,1.944,4.409,5.025,4.409,3.129,0,4.978-1.659,4.978-4.03,0-7.159-17.068-2.844-17.02-14.838,0-5.974,4.835-9.578,11.662-9.578,6.78,0,11.427,3.461,11.854,9.436h-7.302c-.142-2.18-1.896-3.888-4.741-3.936-2.607-.094-4.551,1.187-4.551,3.888,0,6.638,16.973,2.94,16.973,14.602,0,5.217-4.172,9.911-11.71,9.911Z"/>
    <path class="cls-1" d="M238.147,160.006h-12.564v8.297h11.142v5.263h-11.142v8.77h12.564v5.405h-19.2v-33.14h19.2v5.405Z"/>
    <path class="cls-1" d="M252.695,154.649v27.829h10.904v5.263h-17.541v-33.092h6.637Z"/>
    <path class="cls-1" d="M281.133,154.649h24.274v5.357h-8.818v27.735h-6.638v-27.735h-8.818v-5.357Z"/>
    <path class="cls-1" d="M324.552,154.649c7.965,0,11.948,4.6,11.948,10.145,0,4.03-2.227,8.109-7.539,9.53l7.918,13.418h-7.681l-7.301-12.897h-3.129v12.897h-6.637v-33.092h12.42ZM324.315,160.148h-5.547v9.72h5.547c3.698,0,5.357-1.944,5.357-4.932,0-2.938-1.659-4.788-5.357-4.788Z"/>
    <path class="cls-1" d="M344.315,154.649h6.638v20.48c0,4.551,2.465,6.922,6.685,6.922,4.267,0,6.732-2.371,6.732-6.922v-20.48h6.685v20.434c0,8.724-6.258,12.991-13.512,12.991s-13.227-4.267-13.227-12.991v-20.434Z"/>
    <path class="cls-1" d="M394.514,154.222c7.348,0,13.321,3.936,15.55,10.714h-7.633c-1.565-3.177-4.409-4.74-7.965-4.74-5.784,0-9.908,4.219-9.908,10.95,0,6.686,4.124,10.953,9.908,10.953,3.556,0,6.4-1.565,7.965-4.788h7.633c-2.229,6.826-8.202,10.714-15.55,10.714-9.53,0-16.784-6.97-16.784-16.879s7.254-16.925,16.784-16.925Z"/>
    <path class="cls-1" d="M424.277,172.997v14.744h-6.637v-33.092h6.637v14.838l12.043-14.838h8.011l-13.654,16.404,14.034,16.688h-8.391l-12.043-14.744Z"/>
    <path class="cls-1" d="M475.562,188.074c-6.874,0-12.183-3.603-12.279-9.862h7.113c.191,2.656,1.944,4.409,5.024,4.409,3.131,0,4.978-1.659,4.978-4.03,0-7.159-17.067-2.844-17.019-14.838,0-5.974,4.836-9.578,11.662-9.578,6.78,0,11.427,3.461,11.854,9.436h-7.302c-.142-2.18-1.896-3.888-4.74-3.936-2.61-.094-4.551,1.187-4.551,3.888,0,6.638,16.974,2.94,16.974,14.602,0,5.217-4.174,9.911-11.713,9.911Z"/>
    <path class="cls-1" d="M510.261,188.074c-9.339,0-16.973-7.019-16.973-16.973s7.634-16.927,16.973-16.927c9.433,0,16.925,7.019,16.925,16.927s-7.537,16.973-16.925,16.973ZM510.261,182.148c5.974,0,10.099-4.315,10.099-11.047s-4.124-10.953-10.099-10.953c-6.02,0-10.147,4.219-10.147,10.953s4.127,11.047,10.147,11.047Z"/>
    <path class="cls-1" d="M540.641,154.649v27.829h10.904v5.263h-17.542v-33.092h6.638Z"/>
    <path class="cls-1" d="M557.561,154.649h6.638v20.48c0,4.551,2.465,6.922,6.684,6.922,4.267,0,6.734-2.371,6.734-6.922v-20.48h6.684v20.434c0,8.724-6.259,12.991-13.512,12.991s-13.227-4.267-13.227-12.991v-20.434Z"/>
    <path class="cls-1" d="M590.834,154.649h24.274v5.357h-8.818v27.735h-6.638v-27.735h-8.818v-5.357Z"/>
    <path class="cls-1" d="M621.833,154.649h6.638v33.092h-6.638v-33.092Z"/>
    <path class="cls-1" d="M652.267,188.074c-9.339,0-16.973-7.019-16.973-16.973s7.634-16.927,16.973-16.927c9.436,0,16.925,7.019,16.925,16.927s-7.537,16.973-16.925,16.973ZM652.267,182.148c5.974,0,10.099-4.315,10.099-11.047s-4.124-10.953-10.099-10.953c-6.02,0-10.147,4.219-10.147,10.953s4.127,11.047,10.147,11.047Z"/>
    <path class="cls-1" d="M704.313,154.601v33.14h-6.638l-15.029-22.709v22.709h-6.638v-33.14h6.638l15.029,22.757v-22.757h6.638Z"/>
    <path class="cls-1" d="M724.168,188.074c-6.874,0-12.183-3.603-12.279-9.862h7.113c.191,2.656,1.944,4.409,5.024,4.409,3.131,0,4.978-1.659,4.978-4.03,0-7.159-17.067-2.844-17.019-14.838,0-5.974,4.836-9.578,11.662-9.578,6.78,0,11.425,3.461,11.852,9.436h-7.301c-.142-2.18-1.896-3.888-4.74-3.936-2.61-.094-4.551,1.187-4.551,3.888,0,6.638,16.973,2.94,16.973,14.602,0,5.217-4.173,9.911-11.712,9.911Z"/>
  </g>
</svg>